<svg xmlns="http://www.w3.org/2000/svg" viewBox="0 0 661.32 883"><defs><style>.cls-1{fill:#8b1825;}.cls-2{fill:#558c3f;}.cls-3{fill:#585d59;}.cls-4{fill:#569542;}.cls-5{fill:#c7d833;}</style></defs><title>Asset 1</title><g id="Layer_2" data-name="Layer 2"><g id="Layer_2-2" data-name="Layer 2"><circle class="cls-1" cx="128.3" cy="91.45" r="17.15"/><circle class="cls-2" cx="365.49" cy="92.85" r="17.15"/><circle class="cls-2" cx="365.49" cy="92.85" r="17.15"/><circle class="cls-2" cx="365.49" cy="92.85" r="17.15"/><circle class="cls-2" cx="365.49" cy="92.85" r="17.15"/><circle class="cls-1" cx="365.49" cy="92.85" r="17.15"/><circle class="cls-1" cx="155.43" cy="232.9" r="17.15"/><circle class="cls-1" cx="89.67" cy="362.85" r="17.15"/><circle class="cls-1" cx="528.35" cy="204.3" r="17.15"/><circle class="cls-1" cx="465.59" cy="381.5" r="17.15"/><path class="cls-3" d="M318.71,613.77a1198.6,1198.6,0,0,0,0-183.53c-1.9-24.68-4.49-48.4-7.62-71.12a80.66,80.66,0,0,0-15.88-26.68c4.79-8.84,8.05-10.41,10.17-10.16,6.23.75,6.07,17.86,20.32,29.22,5.27,4.2,7.21,3.38,7.62,3.17,3.62-1.83,1.58-12.89,0-19.69l-3.18-18.41c15.7-.63,29.19,8.36,33,20.95,3.59,11.77-2.61,22.21-3.81,24.14-.76,14-1.65,34.64-1.9,59.69-.35,34.78-.46,53.09,2.54,76.84a364.64,364.64,0,0,0,13.33,61.6,121.41,121.41,0,0,0,3.18,35.56,119.86,119.86,0,0,0,6.35,19Z"/><path class="cls-3" d="M188.21,643.93c.24,1.77,11.56,1.62,14,1.59a142.89,142.89,0,0,0,33-4.45c15.69-2.21,36.08-4.65,60-6.35,23.16-1.64,40.68-2,56.21-2.22,33.75-.56,58.67.38,65.09.64,17,.68,31.38,1.66,42.23,2.54,24,1.79,49.09,3.4,49.21,2.22.09-.84-12.47-2.79-19.05-3.81-28.39-4.41-50.54-5.72-56.2-6-19.94-1.13-47.56-2.22-81.6-2.23q-22.67.28-46.68,1.59c-34.6,1.92-67.16,5.4-97.48,9.84a65.44,65.44,0,0,0-11.19,2.86C192.35,641.31,188.06,642.82,188.21,643.93Z"/><path class="cls-4" d="M71.2,392.46a33.5,33.5,0,0,0,6.91,9c2.08,1.93,8.72,7.89,18.57,8.58,13.43.94,22.55-8.63,23.82-10a60.67,60.67,0,0,1-7.62-3.34c-7-3.68-10.31-7.18-12.86-8.81C95.62,385.12,87.51,384.13,71.2,392.46Z"/><path class="cls-4" d="M17.31,403.23a33.48,33.48,0,0,0,8.15,7.95c2.34,1.6,9.76,6.54,19.62,5.79,13.42-1,21.06-11.79,22.11-13.34a60.06,60.06,0,0,1-8-2.19c-7.51-2.63-11.24-5.62-14-6.86C40.41,392.43,32.25,392.63,17.31,403.23Z"/><path class="cls-5" d="M122.41,377.19A33.3,33.3,0,0,0,129,386.5c2,2,8.39,8.23,18.21,9.31,13.39,1.48,22.88-7.71,24.2-9a60.18,60.18,0,0,1-7.48-3.63c-6.9-4-10-7.59-12.5-9.32C147.1,370.83,139,369.52,122.41,377.19Z"/><path class="cls-4" d="M177.36,364.66a33.41,33.41,0,0,0,5.71,9.84c1.83,2.18,7.66,8.92,17.35,10.85,13.2,2.62,23.45-5.72,24.88-6.93a61.28,61.28,0,0,1-7.14-4.26c-6.53-4.55-9.32-8.43-11.64-10.36C202.51,360.45,194.59,358.45,177.36,364.66Z"/><path class="cls-4" d="M243.14,372.45c-4.38-2.38-5.3-4.88-10.95-7.38a30.88,30.88,0,0,0-8.58-2.38c.81-1,11-13.13,27.39-11.67,15.64,1.39,23.5,13.93,24.29,15.24A27.74,27.74,0,0,1,261,374.59C259.17,375,250.83,376.63,243.14,372.45Z"/><path class="cls-4" d="M111.93,341.49c1.43,2.09,8.82,12.4,22.14,14.53a35.07,35.07,0,0,0,19.53-2.86,36.52,36.52,0,0,0,7.86-4.76c-2.07-1.5-5.1-3.66-8.81-6.19-7.49-5.1-11.24-7.66-13.58-8.58C136.24,332.52,127.66,330.2,111.93,341.49Z"/><path class="cls-4" d="M168.84,326.49c13.15-7.29,21.44-4.71,23.82-3.81,4,1.53,7.77,4.83,15.24,11.43,3.61,3.19,6.45,6,8.33,7.86a34,34,0,0,1-24.53,3.81,34.42,34.42,0,0,1-19.29-12.86A32.11,32.11,0,0,1,168.84,326.49Z"/><path class="cls-5" d="M226.47,313.87c1.34-.62,16.07-7.16,30.25,1.19,11.14,6.56,14.2,17.76,14.76,20a32.63,32.63,0,0,1-13.1,1.91C238.73,335.69,227.68,316.09,226.47,313.87Z"/><path class="cls-5" d="M114.31,302c13.6-6.62,20.86-5.5,25-3.09s6.44,7,15.24,12.86a66.79,66.79,0,0,0,6.91,4,57.13,57.13,0,0,1-7.15,2.39c-4.21,1.1-12.74,3.32-20.48,1.42C121.82,316.64,115.65,304.72,114.31,302Z"/><path class="cls-4" d="M169.08,289.1c1.22,2.38,8.14,15.38,22.86,19.53a37.43,37.43,0,0,0,17.62.48,36.2,36.2,0,0,0,10.72-4.29,81.71,81.71,0,0,0-12.62-11.91c-6.7-5.09-11.29-8.58-17.86-9.52C180.57,282.06,172.79,286.53,169.08,289.1Z"/><path class="cls-5" d="M9.53,363.4c12.76-8,20-7.63,24.29-5.71,3.65,1.63,5.61,4.6,13.57,9.52a86.5,86.5,0,0,0,9.29,5,28.06,28.06,0,0,1-14.29,7.62C30.53,382,17.64,375.5,9.53,363.4Z"/><path class="cls-4" d="M58.58,314.82c11.73-7.07,19.47-5.35,22.15-4.52,3.69,1.14,7.75,4.42,15.72,10.95,4.4,3.6,7.9,6.7,10.24,8.81-1.83,1.3-11.57,7.93-24.29,5.48C65.37,332.26,58.94,315.78,58.58,314.82Z"/><path class="cls-4" d="M14.29,317.92c6.68-.58,11.83-1,16.91,1.66,3.86,2.05,3.9,3.92,9.28,8.34a52.84,52.84,0,0,0,11,6.91c-2.19,1.7-11.32,8.41-23.82,7.14-12-1.21-22.51-9.3-27.62-21A58.68,58.68,0,0,1,14.29,317.92Z"/><path class="cls-4" d="M58.66,277.2c14.8-5.77,22.75-4.07,27.31-1.27,2,1.19,3.06,2.45,12.38,10.16,3.61,3,6.6,5.39,8.58,7a71.25,71.25,0,0,1-13.66,3.18c-5.68.74-11.28,1.47-16.51,0C65.48,293.06,60.09,280.77,58.66,277.2Z"/><path class="cls-4" d="M3.1,281.32c13.89-5.73,21.56-4.21,26-1.58,2.53,1.48,3.52,3,7,6a64.26,64.26,0,0,0,18.1,11.11c-2,1.34-16.15,10.27-29.85,5.08-7-2.64-12.28-8.34-14-10.16A45.39,45.39,0,0,1,3.1,281.32Z"/><path class="cls-4" d="M117.4,262.91c12.2-8,19.43-7.82,23.82-6,5.95,2.42,8.22,8.38,19.37,14.93a63.06,63.06,0,0,0,7.62,3.81,39.59,39.59,0,0,1-14.29,5.4,35.1,35.1,0,0,1-18.1-1.27C124.26,275.53,118.83,265.71,117.4,262.91Z"/><path class="cls-4" d="M65.65,240.36C75.81,233.3,83,234,86,234.65c2.63.55,4.83,1.63,16.51,9.84,5.15,3.63,9.4,6.7,12.38,8.89-4.34,2.25-19.63,9.62-30.48,3.81a58.24,58.24,0,0,1-7.62-5.4A70,70,0,0,1,65.65,240.36Z"/><path class="cls-5" d="M10.08,236.87a82.72,82.72,0,0,1,11.11,0c6.54.44,9.81.66,13,2.22,5,2.44,5.55,5.67,11.75,12.39A70.34,70.34,0,0,0,56.76,261a48.13,48.13,0,0,1-14.61,1.59c-4.76-.22-9.75-.45-14.92-3.49-3.57-2.1-5.55-4.54-8.57-8.27A63.86,63.86,0,0,1,10.08,236.87Z"/><path class="cls-4" d="M20.56,199.4c.34,3.62,2,16.56,12.38,25.4a39.49,39.49,0,0,0,13.66,7.31,41.93,41.93,0,0,0,14,1.9c-1-2.48-2.61-6.14-4.77-10.48-4.85-9.77-7.28-14.65-11.11-18.09C42.63,203.58,35.53,198,20.56,199.4Z"/><path class="cls-4" d="M37.07,162.57a39.63,39.63,0,0,0,7.3,20.64c2.27,3.12,6.62,9.11,14.93,12.07a29.52,29.52,0,0,0,17.14.63,76,76,0,0,0-4.12-10.48c-2.8-5.8-5.84-12.08-11.12-16.51C52.8,161.88,41.79,162.14,37.07,162.57Z"/><path class="cls-4" d="M88.83,192.74a32.15,32.15,0,0,0,1.58,20.32c3.29,7.37,8.8,11.38,13.66,14.92a55.81,55.81,0,0,0,14.6,7.62c-.44-2.84-1.15-6.9-2.22-11.75-2-8.87-3-13.34-4.76-16.83C110.26,204.27,105.29,196.34,88.83,192.74Z"/><path class="cls-4" d="M107.56,158.44a64.93,64.93,0,0,0,4.13,23.5,33.78,33.78,0,0,0,4.44,8.89C123,200,134.55,202,139.63,202.58c-1.08-3.3-2.63-8.34-4.13-14.61-1.68-7.05-1.82-9.45-2.54-11.75C131.24,170.74,125.57,163.84,107.56,158.44Z"/><path class="cls-5" d="M169.79,180.35a39.57,39.57,0,0,0-1.58,13,34.56,34.56,0,0,0,5.39,18.1c6.21,9.37,15.7,12.48,18.74,13.33a88.21,88.21,0,0,0,0-13.33c-.63-8.4-1.05-13.94-4.13-19.05C183.36,184.37,174.35,181.43,169.79,180.35Z"/><path class="cls-4" d="M190.12,160.67a32.14,32.14,0,0,0,.63,9.52c.56,2.56,2.48,11.23,9.84,16.83,3.84,2.92,8.07,3.85,16.51,5.72a100.62,100.62,0,0,0,12.07,1.9c-1.21-2.75-3-6.73-5.4-11.43-5.42-10.74-8.22-16.17-12.06-19.05C209.55,162.54,203,158.33,190.12,160.67Z"/><path class="cls-4" d="M189.48,243.22a40.52,40.52,0,0,0,8.89,22.86A33,33,0,0,0,213,276.88a32,32,0,0,0,14.6,1.59c-1.07-2.61-2.7-6.47-4.76-11.12-4-9-6-13.45-7.62-15.56C213,249,206.83,242.91,189.48,243.22Z"/><path class="cls-4" d="M242.19,264.81c1,1.81,2.5,4.66,4.13,8.26,4.87,10.76,4.05,13.17,7.62,17.78,4.28,5.53,10.05,8,13,9.21a37.1,37.1,0,0,0,12.38,2.85,44.56,44.56,0,0,0-1.27-11.11c-1.27-5.15-3.7-15.05-11.43-19.68-2.93-1.76-3.43-.84-14.61-4.13C247.84,266.75,244.44,265.6,242.19,264.81Z"/><path class="cls-4" d="M282.51,241.32a92.73,92.73,0,0,0-2.22,18.09c-.13,5.61-.22,9.7.95,13.66,3.37,11.32,15.77,17,21,19.05-.12-3.46-.22-8.63,0-14.92.41-11.73,1.49-15-.95-19.37-.44-.78-1.05-1.8-9.53-8.89C288,245.8,284.81,243.19,282.51,241.32Z"/><path class="cls-5" d="M333,233.06a39.43,39.43,0,0,0-12.38,22.23c-2.69,15.41,5.07,26.93,6.66,29.21a34.59,34.59,0,0,1,2.54-8.26c3.61-7.91,7.7-8.56,10.17-14.92,2.52-6.52.93-12.79.31-15.24A28.8,28.8,0,0,0,333,233.06Z"/><path class="cls-4" d="M221.55,207.34a130.32,130.32,0,0,0,.64,19.37c.5,4.75.79,7.42,1.58,9.84,3.49,10.6,16.59,15.8,24.45,18.1a104.69,104.69,0,0,0-1.9-15.56c-1.77-8.85-2.88-14.38-6.67-19.68C237.78,216.79,232.64,210.57,221.55,207.34Z"/><path class="cls-4" d="M259.65,185.43a45.73,45.73,0,0,0-2.22,21.28,38.33,38.33,0,0,0,2.22,8.89c4.33,11,13.81,16.92,18.42,19.37,0-5.34.13-12.73.63-21.6.43-7.58.8-10.09-.31-13.33C277.18,196.52,273.51,190,259.65,185.43Z"/><path class="cls-4" d="M305.06,173.05a39.21,39.21,0,0,0-8.89,14.29,40.88,40.88,0,0,0-1.91,18.1,43.21,43.21,0,0,0,10.16,22.86,81.63,81.63,0,0,1,4.13-12.7c3.78-9,6.74-11.56,7.94-15.88C317.94,194.47,316.89,186.17,305.06,173.05Z"/><path class="cls-4" d="M343.48,176.86a40.89,40.89,0,0,0-9.85,16.83,38.57,38.57,0,0,0-1.58,10.79c.05,12.85,7.48,22.3,10.48,25.72a65.29,65.29,0,0,1,3.81-13c2.69-6.59,4.15-7.08,5.71-12.06,1.06-3.37,3.47-11.05,0-18.74A22.23,22.23,0,0,0,343.48,176.86Z"/><path class="cls-4" d="M366.34,232.43c-.19-1.7-2.06-21.14,12.38-33a35,35,0,0,1,19.37-7.62c.22,1.53.5,3.85.64,6.67a68.22,68.22,0,0,1-.32,10.8C397.5,216,384.65,225.51,366.34,232.43Z"/><path class="cls-4" d="M234.25,133a155,155,0,0,0-1.59,18.1c-.21,7.68.31,10,1.27,12.07,1.53,3.32,3.08,3.74,8.89,9.52,7.43,7.39,8.94,10.73,10.48,10.16s.71-4.85.64-16.83c-.08-12.25.9-13.68-1-17.14-1.59-3-4.65-5.37-10.79-10.16C239,136.26,236.23,134.35,234.25,133Z"/><path class="cls-4" d="M282.51,118.12a38.65,38.65,0,0,0-11.11,15.56c-1.27,3.35-3.6,9.48-1.9,16.51a33.17,33.17,0,0,0,2.54,6.35,117.83,117.83,0,0,0,7.3,13.33c1.15-2.32,2.9-5.86,5.08-10.16,5.57-11,6.36-12.15,7-14C293.18,140.57,292.84,132.14,282.51,118.12Z"/><path class="cls-4" d="M318.71,115.89a41.79,41.79,0,0,0-7.94,10.48c-1.71,3.24-3.89,7.36-4.12,13-.18,4.4.9,7.63,2.22,11.43a53.33,53.33,0,0,0,8.57,15.56c.79-1.57,2.08-4,3.81-7,3.19-5.43,4.32-6.44,5.72-9.53a29.59,29.59,0,0,0-.64-25.4Z"/><path class="cls-4" d="M167.25,102.24v14c0,10.87,0,12.2,1,14.29,1.61,3.69,3.77,4.64,12.7,12.07,4.12,3.43,7.4,6.34,9.52,8.25a172.43,172.43,0,0,1-1.27-20.64c0-7.18.43-9.53-.63-12.7C186.89,112.59,182,106.61,167.25,102.24Z"/><path class="cls-4" d="M134.87,128.91A39,39,0,0,0,136.14,148a36.37,36.37,0,0,0,5.39,10.48c7.57,9.87,19,12.36,22.87,13-.7-2.45-1.67-6.18-2.54-10.79-1.84-9.75-.72-10.24-2.23-14-3.48-8.62-12.26-13-15.56-14.6A38.45,38.45,0,0,0,134.87,128.91Z"/><path class="cls-4" d="M213.29,83.19a41.76,41.76,0,0,0-8.89,14.29c-1.47,4-2.7,7.38-2.22,11.75.59,5.31,3.57,9.32,9.53,17.14,2.42,3.18,4.56,5.67,6,7.31a29.26,29.26,0,0,1,.95-7.94c1.5-5.68,3.75-7,5.4-11.12,3.66-9-.8-18.74-1.9-21A29.28,29.28,0,0,0,213.29,83.19Z"/><path class="cls-4" d="M247.9,65.73a35.22,35.22,0,0,0-9.2,20.32c-.63,7.26,1.42,12.88,2.85,16.83a51,51,0,0,0,10.8,17.46l2.54-7.94c3.89-12.19,4.17-13.28,4.44-14.6.89-4.34,2.08-10.17.32-16.51C257.37,73.07,251.26,68,247.9,65.73Z"/><path class="cls-4" d="M229.17,8.57a47.64,47.64,0,0,0-7,22.23,32.55,32.55,0,0,0,1.27,12.38c3.27,10.17,11.42,15.59,14.6,17.47a47.93,47.93,0,0,1,.32-7.94c.7-5.62,2-8,2.86-12.38a39.32,39.32,0,0,0,0-13.66C239.35,17.5,232.85,11.45,229.17,8.57Z"/><path class="cls-4" d="M187.26,22.86c-1.69,6.63-2.78,12.28-3.49,16.51-1.61,9.53-1.37,12.29-.32,14.93.91,2.29,2.94,4.41,7,8.57l11.43,11.75c.09-2.51.31-6.53,1-11.43,1.63-12.48,4.1-16.25,1.9-21.91-1-2.51-3.08-4.74-7.3-9.21A88.45,88.45,0,0,0,187.26,22.86Z"/><path class="cls-5" d="M153.28,43.18a48.16,48.16,0,0,0-2.22,17.15A31.85,31.85,0,0,0,154.24,74a32.62,32.62,0,0,0,4.12,6,76.33,76.33,0,0,0,11.75,11.74,74.14,74.14,0,0,1-.63-14.6c.56-10.18,2.91-13.87.31-18.74-.47-.88-.92-1.46-8.57-8.25C158,47.27,155.22,44.87,153.28,43.18Z"/><path class="cls-5" d="M56.76,130.82a47.83,47.83,0,0,0,3.49,12.06c1.68,3.83,4.69,10.68,11.11,15.56,9.74,7.4,21.59,5.91,24.77,5.4a43.36,43.36,0,0,1-5.4-9.21c-2.49-5.81-1.76-7.71-3.81-11.43-3.36-6.11-9.57-8.71-13-10.16A33.26,33.26,0,0,0,56.76,130.82Z"/><path class="cls-4" d="M84.06,98.11A89.71,89.71,0,0,0,86.29,114c1.47,6.35,2.21,9.52,4.44,12.7,4.35,6.19,11,8.67,15.88,10.48a47.4,47.4,0,0,0,10.16,2.54,34.89,34.89,0,0,1-3.81-8.26,65,65,0,0,1-1.59-7.3,73.22,73.22,0,0,0-3.49-11.43C104.12,103.58,88.83,99.31,84.06,98.11Z"/><path class="cls-5" d="M269.18,6a78.12,78.12,0,0,0-5.4,8.26c-3.39,6-5.08,9-5.08,12.7,0,3.44,1.41,5.13,5.4,12.07C266,42.44,268.85,47.51,272,54a54.88,54.88,0,0,1,1.9-10.8c2.76-9.73,6.72-13.22,5.4-19.37-.29-1.34-1.25-3.12-3.18-6.66A101.55,101.55,0,0,0,269.18,6Z"/><path class="cls-4" d="M313.31,0c-1.42,1.75-3.53,4.38-6,7.62-5.15,6.69-7.74,10.08-8.57,12.7-1.41,4.43-.52,8.25,1.27,15.88a84.39,84.39,0,0,0,6,17.14,39.17,39.17,0,0,1,3.49-8.57c2.69-4.84,4.9-6.35,7.31-10.8a37.22,37.22,0,0,0,3.49-10.16C322.16,12.82,315.62,3.12,313.31,0Z"/><path class="cls-5" d="M359.35,1a93,93,0,0,1-8.57,11.43c-4.86,5.54-6.92,6.55-8.57,10.48-1.87,4.43-1.48,8.42-.95,14a55.8,55.8,0,0,0,3.81,15.56c1.12-1.72,2.84-4.29,5.08-7.3,6.34-8.57,7.27-7.91,9.2-11.43,4.16-7.58,2.95-16.31,1.91-23.82A60.74,60.74,0,0,0,359.35,1Z"/><path class="cls-4" d="M402.22,13.34A78.76,78.76,0,0,0,385.71,25.4c-4.37,4.18-5.65,6.41-6.35,8.57-.89,2.7-.83,5.05.32,12.71.57,3.86,1.39,8.82,2.54,14.6a47.79,47.79,0,0,1,6-7c5.92-5.65,9.37-6,12.38-10.48,2.26-3.34,2.54-6.5,3.18-11.75A46.47,46.47,0,0,0,402.22,13.34Z"/><path class="cls-4" d="M292,59.38a38.2,38.2,0,0,0-9.21,9.2c-1.89,2.69-5.24,7.45-6,14.29-.61,5.22.56,9.1,2.22,14.61a64.51,64.51,0,0,0,6.67,14.92,27.62,27.62,0,0,1,1.9-8.25c2.46-6.07,5.46-6.94,7.94-11.75,3.13-6.06,2.31-12.28,1.59-17.78A42.64,42.64,0,0,0,292,59.38Z"/><path class="cls-4" d="M333.63,58.11c-1.86,2.54-4.52,6.23-7.62,10.79-5,7.38-5.45,8.64-5.71,9.53-1.88,6.38.43,12.34,2.54,17.78a48.91,48.91,0,0,0,7.3,12.7,21.34,21.34,0,0,1,1.91-9.53c2.7-5.76,6.32-6,8.89-11.11,3-5.91,1.48-12.3.63-15.88A30.6,30.6,0,0,0,333.63,58.11Z"/><path class="cls-4" d="M443.18,27a78.34,78.34,0,0,0-14.29,7c-6.34,4-9.63,6-11.75,10.17-1.13,2.22-1.38,4-1.9,14-.29,5.5-.49,10.33-.64,14.28,2-1.49,5-3.79,8.58-6.66C438.56,53.41,440.41,50,441.27,47c.45-1.56.73-4.53,1.27-10.48C442.91,32.56,443.09,29.27,443.18,27Z"/><path class="cls-4" d="M426.67,83.83A35.31,35.31,0,0,0,408.57,88c-3,1.65-8.38,4.57-11.11,10.48-1.08,2.32-1,3.51-1.91,8.26a126.07,126.07,0,0,1-3.81,14.92,60.32,60.32,0,0,0,11.11-3.81c5.69-2.6,12.9-5.89,17.79-13.34a35.1,35.1,0,0,0,4.12-9.2A42.43,42.43,0,0,0,426.67,83.83Z"/><path class="cls-4" d="M481.28,45.41c-2.82,0-14.49.32-22.86,8.89a26.28,26.28,0,0,0-6,9.2c-1.05,2.78-1.35,6.34-1.91,13.34-.35,4.42-.73,9.25-1,12.07a100.4,100.4,0,0,0,9.53-4.45c4.45-2.37,10.37-6,13.33-8.57C482,67.44,481.62,50.9,481.28,45.41Z"/><path class="cls-4" d="M493,84.14a32.53,32.53,0,0,1,14.29-8.57,39.35,39.35,0,0,1,14.29-1.91A28.42,28.42,0,0,1,520,84.46a29.48,29.48,0,0,1-7.3,11.11c-4,3.78-5.6,3.22-18.74,9.53-7.49,3.6-9.89,5.19-11.11,4.13-1.65-1.44.43-6.35,2.86-12.07C488.42,90.8,489.77,87.62,493,84.14Z"/><path class="cls-5" d="M460,98.43a36.73,36.73,0,0,0-31.44,27,37.57,37.57,0,0,0-.95,14.92,27.18,27.18,0,0,1,5.08-5.08c5.58-4.23,8.95-3.23,13.65-6,6.1-3.63,8.53-10.13,10.8-16.19A45.59,45.59,0,0,0,460,98.43Z"/><path class="cls-5" d="M346.34,138.44c.56-1.38,1.89-3.93,9.52-8.89a90.34,90.34,0,0,1,15.24-7.94,73.74,73.74,0,0,1,1.59,10.16c.54,6.25.82,9.42-.64,13a20,20,0,0,1-7.3,8.57c-5.53,4-8.89,3-12.7,7.31-2.62,3-2.85,5.55-3.81,5.39-1.22-.19-1.08-4.44-1.9-15.87C345.74,141.83,345.42,140.69,346.34,138.44Z"/><path class="cls-4" d="M410.16,135.26a47.82,47.82,0,0,0-14,7.62c-3.75,3-7.78,6.15-9.85,11.75-.68,1.85-1,3.62-1.27,8.58a150,150,0,0,0,.32,19c2.18-2.17,5.55-5.43,9.84-9.21,10.2-9,14-10.72,15.56-16.19.67-2.42.56-5.42.32-11.44A97.62,97.62,0,0,0,410.16,135.26Z"/><path class="cls-4" d="M447.94,162.25a80,80,0,0,0-17.14,6.67c-8.9,4.72-10.6,7.84-11.12,8.89-1.32,2.7-1.05,4.5-1.58,11.11-.45,5.6-1.11,10.11-1.59,13A71.87,71.87,0,0,0,427,196.86c7.14-4.2,17.7-10.42,19.36-19.37.31-1.64.7-5.45,1-7.93C447.63,166.45,447.82,163.91,447.94,162.25Z"/><path class="cls-4" d="M478.11,181A89.27,89.27,0,0,1,486,170.83c6.45-7.13,9.69-10.72,14.93-12.07,3.75-1,4.56.23,15.24.64,4.68.17,8.54.09,11.11,0a46.7,46.7,0,0,1-5.71,10.79c-3.35,4.71-6.62,9.31-12.07,11.11-4.69,1.56-7.06-.28-15.56-1A66.68,66.68,0,0,0,478.11,181Z"/><path class="cls-4" d="M539.39,159.4a46.23,46.23,0,0,1,9.52-16.83c3.29-3.67,5.3-5.92,8.89-7.31,5.05-1.94,8.36-.33,18.74-.63,3.74-.11,6.76-.42,8.57-.64a23.25,23.25,0,0,1-3.17,10.8c-4.93,8.17-14,10.64-21.6,12.7A61.53,61.53,0,0,1,539.39,159.4Z"/><path class="cls-4" d="M512.72,133.36a35.59,35.59,0,0,1,8.57-20,36.69,36.69,0,0,1,9.84-7.62A40.18,40.18,0,0,1,553,101.29a27.85,27.85,0,0,1-2.54,13.33c-.76,1.63-4.27,9.14-12.06,12.71-5.59,2.55-8.32.77-19.06,3.81C516.51,132,514.21,132.78,512.72,133.36Z"/><path class="cls-4" d="M457.47,161c-.17-3.3-.34-15,7.94-24.45a33.32,33.32,0,0,1,11.43-8.25,37.31,37.31,0,0,1,18.73-3.18c.18,4.51-.16,13.84-6.67,20.32a27.46,27.46,0,0,1-5.71,4.13c-7,4.25-11.46,4.32-20.32,8.58C460.39,159.31,458.48,160.39,457.47,161Z"/><path class="cls-4" d="M446,217.82a87.34,87.34,0,0,1,5.71-12.7c3.69-6.73,5.54-10.1,8.89-12.07,3.77-2.21,6.09-1.18,16.83-2.22,4.85-.47,8.81-1.11,11.43-1.59a34.43,34.43,0,0,1-4.76,13c-2.07,3.34-4.89,7.9-10.16,10.48-6.6,3.23-10.71.27-22.86,3.49C448.93,216.81,447.17,217.41,446,217.82Z"/><path class="cls-5" d="M564.79,190.19c.84-3.18,3.69-12.25,12.38-18.09a31.16,31.16,0,0,1,12.7-4.77,37.54,37.54,0,0,1,18.42,1.59,37.94,37.94,0,0,1-4.45,7.62c-1.94,2.6-5.69,7.61-12.06,10.48-3.18,1.43-7.56,1.82-16.19,2.54C571.08,189.93,567.35,190.11,564.79,190.19Z"/><path class="cls-5" d="M394.6,246.4c.65-4.12,2.73-12.94,10.16-18.74,5.27-4.11,11.16-5.09,18.73-6.35a74,74,0,0,1,14.61-.95,20.69,20.69,0,0,1-3.18,11.11c-4.78,7.35-13.62,9.36-17.14,10.16-5.52,1.26-7.61.31-15.24,2.23A63.65,63.65,0,0,0,394.6,246.4Z"/><path class="cls-5" d="M529.23,236.87c3.17-1.55,7.7-3.87,13-7,6.91-4,8.39-5.46,11.74-5.71,2.06-.15,4.28.18,14,5.08,4.95,2.5,9,4.74,11.75,6.35a61.12,61.12,0,0,1-12.7,7c-7.06,2.84-10.85,4.37-15.56,3.49-5.12-1-6.12-3.81-14.6-7A54.34,54.34,0,0,0,529.23,236.87Z"/><path class="cls-5" d="M503.51,335.3c3.68-.21,8.92-.41,15.24-.32,8.38.13,12.66.23,16.51,1.59,3.16,1.12,9.14,4,14.61,12.07a32.79,32.79,0,0,1-6,3.17c-2.75,1.1-9.69,3.88-16.19,1.91-4.25-1.29-5-3.61-11.43-9.21A87.11,87.11,0,0,0,503.51,335.3Z"/><path class="cls-5" d="M607,324.51a60,60,0,0,1,12.7-7c6.19-2.47,10.64-4.25,15.88-3.17,3,.62,4,1.71,10.79,5.71,5,2.9,9.1,5,11.75,6.35a27.23,27.23,0,0,1-8.25,7.3c-1.59.91-9.09,5.19-17.47,3.18-4.37-1.05-5.16-2.89-12.06-6.67A74.75,74.75,0,0,0,607,324.51Z"/><path class="cls-4" d="M351.42,287.36a32,32,0,0,1,.31-20,26.34,26.34,0,0,1,5.72-9.52c3.37-3.52,6.95-5,14-7.94a111.54,111.54,0,0,1,13-4.45,38.07,38.07,0,0,1,.32,10.16c-.38,3.59-.79,7.56-3.18,11.43s-5.81,5.93-12.07,9.53c-4.44,2.56-5.93,2.73-10.79,5.72A76.37,76.37,0,0,0,351.42,287.36Z"/><path class="cls-4" d="M374.91,301a173.14,173.14,0,0,1,14.93-13.34c5.24-4.15,7-5,9.2-5.39,4.39-.73,6.91,1.19,14.29,2.54a59.49,59.49,0,0,0,9.85.95,39.17,39.17,0,0,1-6.35,9.21,28.87,28.87,0,0,1-7.31,6,25.79,25.79,0,0,1-10.16,3.17c-5.62.5-7.65-1.32-17.14-2.54C379.11,301.25,376.56,301.08,374.91,301Z"/><path class="cls-4" d="M436.19,302.91A42.27,42.27,0,0,1,446.35,294a32.35,32.35,0,0,1,10.17-4.44,27,27,0,0,1,9.52-.64c3.95.48,5.54,1.63,10.8,3.5a86.22,86.22,0,0,0,11.43,3.17c-1.32,1.21-3.29,3-5.72,5.08-8.41,7.28-10.38,8.14-11.75,8.58-2.58.82-5.42.44-11.11-.32-5.19-.7-9.31-1.87-17.15-4.13C439.89,304.05,437.7,303.38,436.19,302.91Z"/><path class="cls-4" d="M418.41,274a67.64,67.64,0,0,1,7.62-9.53c3.75-3.89,6.66-6.9,11.43-8.89a26.84,26.84,0,0,1,9.53-1.9,41.76,41.76,0,0,1,21,4.76c-1,1.35-2.5,3.25-4.45,5.4-5.79,6.4-9.18,10.14-14,11.75-5.39,1.8-7.26-.88-20.32-1.59A97.79,97.79,0,0,0,418.41,274Z"/><path class="cls-4" d="M480.65,277.2c-.14-.34-.26-1.39,8.57-7.94,5.4-4,8.1-6,10.48-7,2.9-1.19,8.66-3.55,14.92-1.9,5.53,1.45,7.23,4.92,14,5.71a21.72,21.72,0,0,0,5.08,0,27.68,27.68,0,0,1-4.76,7.62c-1.46,1.66-6.86,7.62-15.56,8.89A27.89,27.89,0,0,1,501,281.32c-4.22-1.25-4.46-2.25-8.26-3.17C485.7,276.45,481.21,278.58,480.65,277.2Z"/><path class="cls-4" d="M542.88,274.66a44.26,44.26,0,0,1,13-10.17c3.25-1.66,6.11-3.12,10.16-3.49,4.88-.44,8.93,1.18,16.83,4.45,3,1.22,6.9,3,11.43,5.4a31.05,31.05,0,0,1-7.94,8.25c-2.2,1.57-6.6,4.69-12.38,5.08-4.51.31-6.84-1.26-14.29-4.13A159.46,159.46,0,0,0,542.88,274.66Z"/><path class="cls-4" d="M601.3,283.86A43.91,43.91,0,0,1,616.55,275c5.44-1.82,10-3.35,15.24-1.9,5.79,1.6,6.88,5.35,15.56,9.84a50.13,50.13,0,0,0,8.57,3.49A47.68,47.68,0,0,1,643.85,294c-4.88,2.15-8.93,3.92-14,3.5s-6.84-2.59-16.19-7.62C608.55,287.13,604.21,285.13,601.3,283.86Z"/><path class="cls-4" d="M590.19,251.79a71.82,71.82,0,0,1,9.84-8.57c4-2.85,6.24-4.5,9.85-5.71,2-.67,8.4-2.84,15.24-.64,4.06,1.31,5,3.09,10.16,4.45a29.72,29.72,0,0,0,7.3,1,45.47,45.47,0,0,1-11.75,10.79c-4.49,2.86-8.06,5.13-13,5.4-5.54.31-7.56-2.17-17.79-4.76A87.55,87.55,0,0,0,590.19,251.79Z"/><path class="cls-4" d="M576.54,218.77a38.37,38.37,0,0,1,12.7-13.33c3.72-2.35,7.77-4.91,13.33-5.08s7.87,2.2,16.83,3.17a58,58,0,0,0,7.94.32,39.43,39.43,0,0,1-8.25,10.79c-3.29,3-7.38,6.78-13.34,7.94-5.42,1.06-7.42-1-20.64-2.86C581.49,219.22,578.51,218.93,576.54,218.77Z"/><path class="cls-4" d="M468.26,243.54A32.87,32.87,0,0,1,481.6,228.3a33.66,33.66,0,0,1,13-4.13c5.64-.59,10.55.4,16.51,1.59,2.8.56,5.09,1.15,6.67,1.58a35.38,35.38,0,0,1-7,9.85c-2.21,2.2-4.6,4.56-8.25,6-6.19,2.49-12.86,1.13-18.42,0-3.5-.71-6.77-1.75-11.43-.95A22,22,0,0,0,468.26,243.54Z"/><path class="cls-4" d="M494.62,309.58c1.48-2.41,6.35-9.65,15.56-12.38,6.07-1.8,11.17-.79,14.92,0a43.31,43.31,0,0,1,21.59,12.07,48.23,48.23,0,0,1-8.25,5.08c-6.05,2.91-13.83,6.67-21.28,4.44-6.72-2-7.57-7.23-15.87-8.89A22.88,22.88,0,0,0,494.62,309.58Z"/><path class="cls-4" d="M554,314.66a58.26,58.26,0,0,1,11.75-8.57c7.49-4.13,13.28-7.33,19.37-5.72,4.6,1.22,5.16,4.07,14.29,8.58a67.91,67.91,0,0,0,6.67,2.86,47.19,47.19,0,0,1-10.16,7.3c-5.13,2.73-9.7,5.16-15.24,4.76-6.09-.44-7.25-3.85-16.83-7A53.82,53.82,0,0,0,554,314.66Z"/><path class="cls-4" d="M389.2,340.38c1.06-2.78,4.89-11.74,14.29-16.19A27.75,27.75,0,0,1,414,321.65c6.35-.27,11.47,1.76,17.46,4.13,2.95,1.16,5.33,2.32,7,3.17-1.63,1.19-4.09,3-7,5.4-5.49,4.5-5.21,4.89-7,6-3.61,2.32-6.92,2.08-22.23.95Z"/><path class="cls-4" d="M443.18,324.82c7.27-.44,13.41-.59,18.1-.63,5.19-.05,7.34.05,9.84,1.27,3.15,1.53,3.58,3.25,8.57,9.52,6.44,8.08,9.78,10.3,8.89,12.71-.21.59-.91,1.8-5.39,2.85-3.43.81-15.11,3.55-23.5-3.17-3.73-3-2.78-4.62-10.16-14.61C447,329.28,444.68,326.56,443.18,324.82Z"/><path class="cls-4" d="M554.31,342.6c.25-1.48,3.22-2.1,13.34-3.81,8.11-1.36,12.18-2,13-1.9,6.61,1.11,11,6.1,17.14,13a76.13,76.13,0,0,1,6.35,8.25A50.17,50.17,0,0,1,594,361c-5.45.93-11.65,2-18.1-.32-6.81-2.43-4.83-5.37-17.46-14C556.13,345.16,554.09,343.92,554.31,342.6Z"/><path class="cls-4" d="M612.42,355a32.29,32.29,0,0,1,20.32-5.72,32.83,32.83,0,0,1,15.24,5.4,40.1,40.1,0,0,1,13.34,13.65,16.8,16.8,0,0,1-4.77,4.45c-9,5.56-20.59,0-21.27-.32-5.53-2.75-5.32-5.26-14.61-12.06A90,90,0,0,0,612.42,355Z"/><path class="cls-4" d="M387.61,355.62c2,2.35,5,5.91,8.26,10.48,4.16,5.79,3.88,6.26,6,8.57a32.11,32.11,0,0,0,16.51,9.21,31.29,31.29,0,0,0,12.39,0,29.13,29.13,0,0,0-1.91-8.89c-3.14-8.12-10.36-15.64-19.05-17.78-1-.24-4.37-.48-11.11-.95C394.08,355.93,390.24,355.74,387.61,355.62Z"/><path class="cls-4" d="M494.62,375c5.68-1.52,10.54-2.66,14.29-3.49,9.59-2.12,11.86-2.18,14.28-1.27,3.4,1.27,4.5,3.44,8.58,7.94a89.36,89.36,0,0,0,13,11.75,39,39,0,0,1-12.7,4.76A28.19,28.19,0,0,1,521,395c-5.12-1-8.4-3.49-13.33-7.31A79.94,79.94,0,0,1,494.62,375Z"/><path class="cls-4" d="M544.79,379.75c.05-1.53,5.32-2.74,15.87-5.08,7.49-1.66,9-1.71,10.8-1.27,3.18.78,5.16,2.55,10.16,7.62,3.34,3.39,7.32,7.54,11.75,12.39-2.31.54-5.58,1.24-9.53,1.9-9.61,1.62-14.42,2.42-17.46,1.27-6.15-2.32-5-7.25-13.66-12.38C548,381.37,544.74,381.15,544.79,379.75Z"/><path class="cls-4" d="M604.16,391.5c.44-2.55,7.18-3.45,14.61-4.44,5.4-.73,8.15-1.07,10.79-.32,4.19,1.19,5.86,3.61,11.12,8.26a108.12,108.12,0,0,0,12.06,9.2,22.77,22.77,0,0,1-10.79,7,23.12,23.12,0,0,1-14.29-.64c-5.81-2.05-5.23-4.33-16.51-12.7C606.08,394.1,603.9,393,604.16,391.5Z"/><path class="cls-3" d="M210.75,828.57a12.72,12.72,0,0,0,7.78-6.35c.48-1.1,2.59-6.3.16-11.43-1.75-3.7-4.92-5.4-7.3-6.67-5-2.69-9.73-2.81-13.18-2.86-6.38-.08-14.67-.2-20.16,5.72a18.35,18.35,0,0,0-4.45,9.52q-.15,24.78-.31,49.54a19.17,19.17,0,0,0,6,8.89c3.29,2.65,6.63,3.4,9.84,4.13a35,35,0,0,0,10.64.63c4.89-.34,8.86-.61,13-3.23a15.76,15.76,0,0,0,7-19.31c-.21-.67-1.9-5.58-6.82-7.31a10.61,10.61,0,0,0-5.72-.31q-.15,5.72-.32,11.43a7.72,7.72,0,0,1-2.22,4.28c-1.93,1.83-4.33,2-6.51,2.07a11.2,11.2,0,0,1-6.67-1.27,10,10,0,0,1-3.49-3.5q.16-21.59.32-43.18a6.27,6.27,0,0,1,1.43-4.44c1.54-1.68,3.82-1.71,7.14-1.75,2.43,0,4.06,0,5.88,1a8.91,8.91,0,0,1,3.49,3.65l-.16,11A11.26,11.26,0,0,0,210.75,828.57Z"/><path class="cls-3" d="M138.36,706.64a12.78,12.78,0,0,0,7.78-6.35c.47-1.1,2.58-6.3.16-11.43-1.75-3.7-4.93-5.4-7.31-6.67-5-2.69-9.73-2.81-13.17-2.85-6.39-.09-14.68-.2-20.17,5.71a18.24,18.24,0,0,0-4.44,9.53q-.17,24.76-.32,49.53a19.11,19.11,0,0,0,6,8.89c3.28,2.65,6.62,3.41,9.84,4.13a35,35,0,0,0,10.64.63c4.89-.33,8.85-.61,13-3.23a15.77,15.77,0,0,0,7-19.31c-.22-.66-1.9-5.58-6.83-7.3a10.6,10.6,0,0,0-5.71-.32c-.11,3.81-.21,7.62-.32,11.43a7.84,7.84,0,0,1-2.22,4.29c-1.94,1.82-4.34,1.95-6.51,2.06a11.12,11.12,0,0,1-6.67-1.27,10.11,10.11,0,0,1-3.49-3.49q.15-21.6.31-43.19A6.38,6.38,0,0,1,117.4,693c1.55-1.68,3.83-1.71,7.15-1.75,2.42,0,4,0,5.87,1a8.79,8.79,0,0,1,3.49,3.66l-.15,10.95A11.26,11.26,0,0,0,138.36,706.64Z"/><path class="cls-3" d="M199,721.25a19.55,19.55,0,0,0-9-13,20.75,20.75,0,0,0-11.91-2.7c-2.72.07-7.74.23-12.38,3.8a19.33,19.33,0,0,0-5.88,7.94,20.26,20.26,0,0,0-1.27,6.2,140.35,140.35,0,0,0-.16,17.46,18.76,18.76,0,0,0,3.49,9.21c4.64,6.26,11.84,7.2,13.82,7.46.77.1,12.69,1.48,19.69-7.13a19.58,19.58,0,0,0,3.81-8Q199.08,731.89,199,721.25Zm-13.33,18.42c0,1.47-.14,3.76-1.74,5.23s-3.78,1.43-5.4,1.43c-1.88,0-3.83,0-5.4-1.43a6.51,6.51,0,0,1-1.91-4.75V723.47a7.31,7.31,0,0,1,.8-4.29,7.79,7.79,0,0,1,6-3.65c.58,0,4.11-.31,6.18,2.39a6.59,6.59,0,0,1,1.28,4.44C185.65,725.91,185.88,732.66,185.67,739.67Z"/><path class="cls-3" d="M266.63,846.52a19.59,19.59,0,0,0-9-13,20.64,20.64,0,0,0-11.91-2.69c-2.72.07-7.74.22-12.38,3.8a19.28,19.28,0,0,0-5.88,7.93,20.32,20.32,0,0,0-1.27,6.2,142.36,142.36,0,0,0-.16,17.46,18.82,18.82,0,0,0,3.49,9.22c4.65,6.25,11.84,7.19,13.82,7.46.77.09,12.69,1.47,19.69-7.14a19.58,19.58,0,0,0,3.81-8Q266.73,857.15,266.63,846.52ZM253.3,864.93c0,1.47-.14,3.76-1.74,5.23s-3.77,1.43-5.4,1.43c-1.88,0-3.83,0-5.4-1.43a6.51,6.51,0,0,1-1.91-4.75V848.73a7.32,7.32,0,0,1,.8-4.29,7.74,7.74,0,0,1,6-3.64c.58,0,4.11-.31,6.19,2.38a6.57,6.57,0,0,1,1.27,4.44C253.28,851.17,253.51,857.92,253.3,864.93Z"/><path class="cls-3" d="M207.58,756.33q.07-19.12.16-38.26a17.63,17.63,0,0,1,3.33-5.87A19.08,19.08,0,0,1,223,706v5.24a15.09,15.09,0,0,1,9.21-5.4c5.67-.85,11.53,1.95,15.08,7.14a35.3,35.3,0,0,1,5.44-3.74,22.9,22.9,0,0,1,7.74-3.08,16.13,16.13,0,0,1,8.89.63,15.89,15.89,0,0,1,6.35,4.6,18,18,0,0,1,4.13,9.37q-.09,12-.16,24a15.3,15.3,0,0,1-6,9.85,15,15,0,0,1-9.05,2.7q-.15-16.83-.31-33.66a7,7,0,0,0-2.54-4.45,7.08,7.08,0,0,0-7.78-.15,7.7,7.7,0,0,0-3.34,4.6V755.7a12.21,12.21,0,0,1-9-1,12,12,0,0,1-5.24-5.88V723.31a7.61,7.61,0,0,0-2.85-5.4,7.05,7.05,0,0,0-8.58.16,6.72,6.72,0,0,0-2.06,4.13q-.16,11.91-.32,23.81a14.75,14.75,0,0,1-14.92,10.32Z"/><path class="cls-3" d="M288.71,757.13l.15-38.26A17.71,17.71,0,0,1,292.2,713a19.06,19.06,0,0,1,11.91-6.19V712a15.14,15.14,0,0,1,9.2-5.4c5.67-.85,11.54,2,15.09,7.15a34.81,34.81,0,0,1,5.44-3.74,22.93,22.93,0,0,1,7.73-3.09,16.22,16.22,0,0,1,8.89.63,15.64,15.64,0,0,1,6.35,4.61,17.84,17.84,0,0,1,4.13,9.37q-.07,12-.16,24a15.25,15.25,0,0,1-6,9.84,15,15,0,0,1-9.05,2.7q-.17-16.83-.32-33.66a6.92,6.92,0,0,0-2.54-4.44,7.08,7.08,0,0,0-7.78-.16,7.72,7.72,0,0,0-3.33,4.6v32.07a11.77,11.77,0,0,1-14.29-6.82V724.11a7.56,7.56,0,0,0-2.86-5.4,7,7,0,0,0-8.57.16A6.62,6.62,0,0,0,304,723q-.17,11.91-.32,23.82a14.8,14.8,0,0,1-14.92,10.32Z"/><path class="cls-3" d="M382.37,706.17q-.22,17.94-.47,35.88a5.38,5.38,0,0,0,1.9,3.33c1.05.78,2.41.79,5.08.79s4.17,0,5.24-.79a5.7,5.7,0,0,0,2.07-3.65l.31-28.42a16.44,16.44,0,0,1,13.82-7.62l.15,40c-.36,2.39-1.38,6.53-4.76,9.36-1.41,1.19-3.63,2.49-16.67,2.7-13.24.22-15.28-1-16.51-2.22-3.19-3-3.41-7.73-3.33-10.16V715.53a11.32,11.32,0,0,1,3.33-6.51A12,12,0,0,1,382.37,706.17Z"/><path class="cls-3" d="M418.25,756l.16-37.47a12,12,0,0,1,3.5-8.26c3.24-3.18,7.81-3.41,10-3.37v4.41h1.07a17.78,17.78,0,0,1,9.45-4.37,15.62,15.62,0,0,1,10.95,2.22,15.06,15.06,0,0,1,5.87,7.78l-.15,30.8a13.2,13.2,0,0,1-3.5,5.08,13.68,13.68,0,0,1-8.89,3.34l-.39-32.11a6.28,6.28,0,0,0-.88-3.3c-1.92-3.14-6-3-6.35-3s-4.44.25-6,3.45a6,6,0,0,0-.48,3.57q-.24,11.85-.47,23.7a15.22,15.22,0,0,1-6.87,6.27A15.05,15.05,0,0,1,418.25,756Z"/><path class="cls-3" d="M275.37,878.9l.16-37.47a12,12,0,0,1,3.49-8.26c3.24-3.18,7.82-3.41,10-3.37v4.41h1.08a17.78,17.78,0,0,1,9.44-4.37,15.64,15.64,0,0,1,11,2.22,15.18,15.18,0,0,1,5.87,7.78l-.16,30.8a13,13,0,0,1-3.49,5.08,13.68,13.68,0,0,1-8.89,3.34l-.4-32.11a6.25,6.25,0,0,0-.87-3.3c-1.92-3.14-6-3-6.35-3s-4.44.25-6,3.45a6.08,6.08,0,0,0-.47,3.57l-.48,23.7a14.83,14.83,0,0,1-13.85,7.54Z"/><path class="cls-3" d="M325.35,877.94l.16-37.46a12,12,0,0,1,3.49-8.26c3.25-3.18,7.82-3.41,10-3.37v4.4H340a17.79,17.79,0,0,1,9.44-4.36,15.64,15.64,0,0,1,11,2.22,15.09,15.09,0,0,1,5.87,7.78l-.16,30.8a13.11,13.11,0,0,1-3.49,5.08,13.65,13.65,0,0,1-8.89,3.33l-.4-32.11a6.12,6.12,0,0,0-.87-3.29c-1.92-3.14-6-3-6.35-3s-4.44.26-6,3.46a6,6,0,0,0-.48,3.57l-.48,23.69a15.13,15.13,0,0,1-6.86,6.27A14.79,14.79,0,0,1,325.35,877.94Z"/><path class="cls-3" d="M468.9,706.44v50.25c.37.07,7.88,1.29,11.79-3.69a9.75,9.75,0,0,0,1.9-4.41c0-6,0-34.21-.12-42.27Z"/><path class="cls-3" d="M468.78,690.61h14.41L483,701c-5.74,2-11.41.23-13.58-3.58A9.16,9.16,0,0,1,468.78,690.61Z"/><path class="cls-3" d="M486.52,708.23l12.5-.12V701.8a16.63,16.63,0,0,1,6.67-6.67,16.24,16.24,0,0,1,6.91-1.9l.24,14.76,10,.36A14,14,0,0,1,527.12,720l-14.52.12q.18,14.82.35,29.65a11.85,11.85,0,0,1-5.23,5.83,12.09,12.09,0,0,1-9.17.83V720.26l-7.15-.36a18.2,18.2,0,0,1-4.88-11.67Z"/><path class="cls-3" d="M467.42,831.11l12.5-.12v-6.31a16.63,16.63,0,0,1,6.67-6.67,16.21,16.21,0,0,1,6.9-1.9l.24,14.76,10,.36A14,14,0,0,1,508,842.9l-14.53.12.36,29.65a11.89,11.89,0,0,1-5.24,5.83,12,12,0,0,1-9.17.83V843.14l-7.14-.36a18.2,18.2,0,0,1-4.88-11.67Z"/><path class="cls-3" d="M567.37,707.52,553.8,735.85q-7.34-14.22-14.65-28.45a9.69,9.69,0,0,0-4.64,2.5,10.55,10.55,0,0,0-2.86,5.83,14.46,14.46,0,0,0,.59,7.74l13.82,28.1-4.41,11.52-4.17,11a14.33,14.33,0,0,0,5.24.59,15.81,15.81,0,0,0,5.24-1.43c4.61-2.25,6.89-7,7.62-8.57,7-14.46,14.94-29.51,19.17-44.77.12-.44,1.42-5.45-1.9-9.29A9.74,9.74,0,0,0,567.37,707.52Z"/><path class="cls-3" d="M417.94,859c1.88-14.08-7-26.1-17.86-27.87-7.6-1.22-15.7,2.64-21,9.54a42.07,42.07,0,0,0,.48,30.47A20.62,20.62,0,0,0,417,865.89a21.79,21.79,0,0,1-11.43,5c-2.23.25-10.36,1.15-14.29-4.28a11.78,11.78,0,0,1-1.91-7.86Q403.64,858.86,417.94,859ZM397.69,841.6c4,.15,8,4.6,7.15,10l-15-.24C389.18,845.78,393.58,841.43,397.69,841.6Z"/><path class="cls-3" d="M461.52,844.68c-1.18-1.27-5.09-5.17-11-5.47-1.88-.1-5.22-.28-7.86,2.14a9.59,9.59,0,0,0-2.85,6.91l-.24,13.33c0,.7.29,5.31,4.05,8.1,3.45,2.57,7.43,1.79,9.28,1.43a15.76,15.76,0,0,0,9.29-6,15.5,15.5,0,0,1-2.62,9.29c-4.35,6.18-12.94,7.4-19.05,5.72-7.59-2.09-13.28-9.18-14.29-17.86V849a19.59,19.59,0,0,1,3.1-10.24,20,20,0,0,1,13.57-8.57c2-.26,7.12-.94,11.91,2.38C460.87,836.71,461.45,843.72,461.52,844.68Z"/></g></g></svg>