<?xml version="1.0" encoding="utf-8"?>
<!-- Generator: Adobe Illustrator 25.4.1, SVG Export Plug-In . SVG Version: 6.00 Build 0)  -->
<svg version="1.1" id="Layer_1" xmlns="http://www.w3.org/2000/svg" xmlns:xlink="http://www.w3.org/1999/xlink" x="0px" y="0px"
	 viewBox="0 0 470 262" style="enable-background:new 0 0 470 262;" xml:space="preserve">
<style type="text/css">
	.st0{fill:#FF671D;}
	.st1{fill:#001E61;}
	.st2{enable-background:new    ;}
</style>
<g>
	<path class="st0" d="M80.2,231.1v-43.3c0-1.3,0.3-2.7,1.1-3.8c1.5-2.3,4.2-3.3,6.7-2.9c3.1,0.6,5.4,3.3,5.4,6.4V231L80.2,231.1
		L80.2,231.1z"/>
	<path class="st0" d="M81.5,148.2v-22.5c0-0.7,0.2-1.4,0.6-2c0.8-1.2,2.3-1.7,3.7-1.5c1.7,0.3,3,1.7,3,3.3v22.6L81.5,148.2
		L81.5,148.2z"/>
	<g>
		<path class="st0" d="M81.1,58.8c-1.9,8.3-8.4,14.8-16.7,16.7v1.2c8.3,1.9,14.8,8.4,16.7,16.6h1.2c1.9-8.2,8.4-14.7,16.6-16.6v-1.2
			c-8.2-1.9-14.6-8.4-16.6-16.6L81.1,58.8L81.1,58.8z"/>
		<g>
			<g>
				<path class="st0" d="M84.5,36.7c0.8-0.8,1.2-1.8,1.2-2.9V10.1c0-2.3-1.9-4.2-4.2-4.2c-2.3,0-4.2,1.9-4.2,4.2v23.7
					c0,2.3,1.9,4.2,4.2,4.2C82.7,37.9,83.8,37.5,84.5,36.7z"/>
				<path class="st0" d="M123.8,25.9L107,42.6c-1.6,1.6-1.6,4.3,0,5.9s4.3,1.6,5.9,0l16.7-16.7c1.6-1.6,1.6-4.3,0-5.9
					C128,24.2,125.4,24.2,123.8,25.9z"/>
				<path class="st0" d="M121.7,69.8c-2.3,0-4.2,1.9-4.2,4.2c0,1.1,0.4,2.2,1.2,2.9c0.8,0.8,1.8,1.2,2.9,1.2h23.7
					c1.1,0,2.2-0.4,2.9-1.2c0.8-0.8,1.2-1.8,1.2-2.9c0-2.3-1.9-4.2-4.2-4.2H121.7z"/>
				<path class="st0" d="M107,99.4c-1.6,1.6-1.6,4.3,0,5.9l16.7,16.7c1.6,1.6,4.3,1.6,5.9,0c1.6-1.6,1.6-4.3,0-5.9l-16.7-16.7
					C111.3,97.7,108.7,97.7,107,99.4z"/>
				<path class="st0" d="M56.2,99.4c-1.6-1.6-4.3-1.6-5.9,0l-16.7,16.7c-1.6,1.6-1.6,4.3,0,5.9c1.6,1.6,4.3,1.6,5.9,0l16.7-16.7
					C57.8,103.6,57.8,101,56.2,99.4z"/>
				<path class="st0" d="M41.4,78.1c1.1,0,2.2-0.4,2.9-1.2c0.8-0.8,1.2-1.8,1.2-2.9c0-2.3-1.9-4.2-4.2-4.2H17.6
					c-2.3,0-4.2,1.9-4.2,4.2s1.9,4.2,4.2,4.2L41.4,78.1z"/>
			</g>
			<path class="st0" d="M33.5,25.9c-1.6,1.6-1.6,4.3,0,5.9l16.7,16.7c1.6,1.6,4.3,1.6,5.9,0s1.6-4.3,0-5.9L39.4,25.9
				C37.8,24.2,35.2,24.2,33.5,25.9z"/>
		</g>
	</g>
	<path class="st1" d="M156.8,249c-6.7-4-14-7.4-21.8-10.3c-6.5-38.8-12.4-70.1-17.7-109.2c-0.5-0.4-1.1-0.8-1.6-1.3l-9.6-9.6
		c5.5,41.6,11.7,75.4,18.6,116.8c-8.6-2.4-17.6-4.2-26.9-5.1v-41.6c0-7.8-5.6-14.5-13.3-15.9c-5.8-1.1-11.7,1.1-15.6,5.8
		c-2.4,2.9-3.5,6.7-3.5,10.5v41.2c-9.4,0.9-18.4,2.6-27,5.1c6.6-41.2,12.7-74.8,18.2-116.2c0,0-10.4,10.2-11.1,10.7
		c-5.3,39-11,70.1-17.3,108.8c-7.8,2.8-15.1,6.3-21.8,10.3c-2.7,1.6-3.1,5.2-0.9,7.4c1.5,1.5,3.9,1.8,5.7,0.8
		c5.8-3.4,12-6.4,18.7-8.9c8.7-3.3,18-5.7,27.8-7.3c7.7-1.2,15.7-1.9,23.9-1.9s16.2,0.7,23.9,1.9c9.8,1.6,19.1,4,27.8,7.3
		c6.7,2.5,12.9,5.5,18.7,9c1.8,1.1,4.2,0.8,5.7-0.8C159.8,254.3,159.4,250.6,156.8,249z M88.2,229.5h-6.6H75v-40.6
		c0-1.3,0.3-2.7,1.1-3.8c1.5-2.3,4.2-3.3,6.7-2.9c3.1,0.6,5.4,3.3,5.4,6.4V229.5z"/>
	<path class="st1" d="M88.7,151.4L88.7,151.4h-14c-1.7,0-3.1-1.4-3.1-3.1v-22.4c0-2.2,0.6-4.2,1.7-5.8c2.3-3.4,6.3-5.1,10.3-4.4
		c4.8,0.9,8.3,5,8.3,9.9v22.7c0,0.8-0.3,1.6-0.9,2.2C90.4,151,89.6,151.4,88.7,151.4z M77.9,145.1h7.7v-19.6c0-1.8-1.3-3.4-3.2-3.7
		c-1.6-0.3-3.1,0.4-4,1.7c-0.5,0.7-0.6,1.6-0.6,2.3L77.9,145.1z"/>
</g>
<g>
	<g>
		<path class="st1" d="M161.7,192v-51.4h12.9v41.5h24.3v9.9H161.7z"/>
		<path class="st0" d="M216.4,192.8c-4.5,0-8-1.3-10.5-3.8s-3.8-6.2-3.8-11.1v-23.8H215v23.1c0,2.1,0.5,3.7,1.6,4.7
			c1,1,2.6,1.5,4.7,1.5c1.5,0,3-0.3,4.4-1c1.4-0.6,2.5-1.4,3.4-2.4v-25.9H242V192h-12l-0.4-3.2c-1.5,1.2-3.4,2.1-5.6,2.9
			C221.8,192.5,219.2,192.8,216.4,192.8z"/>
		<path class="st1" d="M249.4,192v-37.8h11.9l0.4,3.4c1.7-1.2,3.6-2.2,5.7-3s4.4-1.2,6.9-1.2c2.6,0,4.6,0.4,6,1.2s2.6,1.8,3.4,3.2
			c1.8-1.3,3.7-2.3,5.9-3.2c2.2-0.8,4.8-1.2,7.8-1.2c4.4,0,7.7,1.1,9.7,3.4c2.1,2.3,3.1,5.8,3.1,10.5V192h-12.7v-23.2
			c0-2.1-0.4-3.6-1.3-4.5s-2.3-1.4-4.3-1.4c-1.2,0-2.4,0.3-3.6,0.8s-2.2,1.2-3,2.1c0.1,0.6,0.2,1.1,0.2,1.7c0,0.5,0,1.2,0,1.9V192
			h-12v-23.4c0-1.9-0.3-3.4-1-4.3c-0.7-1-1.9-1.4-3.8-1.4c-1.3,0-2.6,0.3-3.8,1c-1.2,0.7-2.2,1.5-3.2,2.4V192H249.4z"/>
		<path class="st1" d="M320.1,192v-28.3h-5.6l1.1-9.5H333V192H320.1z"/>
		<path class="st1" d="M340.5,192v-37.8h12l0.4,3.3c1.5-1.1,3.5-2,5.8-2.8s4.8-1.2,7.5-1.2c4.9,0,8.5,1.2,10.7,3.5s3.4,6,3.4,10.9
			V192h-12.9v-23.2c0-2.1-0.5-3.6-1.4-4.6c-0.9-0.9-2.5-1.4-4.9-1.4c-1.4,0-2.8,0.3-4.2,1c-1.4,0.6-2.6,1.4-3.6,2.4V192H340.5z"/>
		<path class="st0" d="M400.9,192.8c-4.5,0-8-1.3-10.5-3.8s-3.8-6.2-3.8-11.1v-23.8h12.9v23.1c0,2.1,0.5,3.7,1.6,4.7
			c1,1,2.6,1.5,4.7,1.5c1.5,0,3-0.3,4.4-1c1.4-0.6,2.5-1.4,3.4-2.4v-25.9h12.9V192h-12l-0.4-3.2c-1.5,1.2-3.4,2.1-5.6,2.9
			C406.3,192.5,403.8,192.8,400.9,192.8z"/>
		<path class="st0" d="M448.4,192.8c-3,0-5.9-0.2-8.6-0.6s-4.9-1-6.5-1.6v-9.8c1.9,0.8,4,1.4,6.5,1.8c2.4,0.4,4.6,0.6,6.5,0.6
			c2.3,0,4-0.1,5-0.3c1-0.2,1.6-0.8,1.6-1.8c0-1.1-0.9-1.9-2.6-2.4s-4-1.3-7-2.3c-3.5-1.2-6.1-2.6-7.9-4.3c-1.8-1.6-2.7-4-2.7-7.2
			c0-3.7,1.4-6.6,4.2-8.6c2.8-2,7.3-3,13.4-3c2.4,0,4.8,0.2,7.1,0.6c2.3,0.4,4.3,0.8,5.7,1.3v9.7c-1.5-0.7-3.2-1.2-5.1-1.5
			s-3.6-0.5-5.2-0.5c-2,0-3.6,0.1-5,0.4c-1.4,0.2-2,0.8-2,1.7c0,1,0.7,1.7,2.2,2.1c1.5,0.4,3.6,1.1,6.5,2c3,0.9,5.3,1.9,6.9,2.9
			s2.8,2.3,3.5,3.7c0.7,1.4,1,3.2,1,5.4c0,3.8-1.5,6.7-4.5,8.7C458.6,191.8,454.2,192.8,448.4,192.8z"/>
	</g>
	<path class="st0" d="M317.9,141.3c0-4.1,3.2-7.1,7.3-7.1c4,0,7.3,3,7.3,7.1c0,4-3.3,7-7.3,7C321.1,148.3,317.9,145.3,317.9,141.3z"
		/>
</g>
<g>
	<g class="st2">
		<path class="st1" d="M187.7,208.2h1.9l6.7,9.4v-9.4h2.1V221h-1.9l-6.6-9.4v9.4h-2.2V208.2z"/>
		<path class="st1" d="M201.9,219.9c-0.9-0.8-1.3-2-1.3-3.7c0-1.5,0.4-2.7,1.2-3.6s1.9-1.3,3.5-1.3c1.4,0,2.5,0.4,3.2,1.1
			s1.1,1.7,1.1,2.9v1.7h-6.9c0.1,0.9,0.4,1.5,1,1.9c0.5,0.4,1.4,0.5,2.6,0.5c0.5,0,1,0,1.5-0.1s0.9-0.2,1.3-0.4v1.6
			c-0.8,0.4-1.9,0.6-3.2,0.6C204,221.2,202.8,220.7,201.9,219.9z M207.6,215.7V215c0-0.7-0.2-1.2-0.6-1.5c-0.4-0.4-1-0.5-1.8-0.5
			c-1,0-1.7,0.2-2.1,0.6c-0.4,0.4-0.6,1.1-0.6,2.1H207.6z"/>
		<path class="st1" d="M212.9,220.4c-0.5-0.5-0.8-1.3-0.8-2.2v-4.9h-1.4v-1.7h1.4v-2.2l2.1-0.7v2.8h2.5l-0.1,1.7h-2.4v4.8
			c0,0.5,0.1,0.9,0.4,1.1c0.2,0.2,0.7,0.3,1.2,0.3c0.4,0,0.7-0.1,1.1-0.2v1.5c-0.5,0.2-1.1,0.3-1.9,0.3
			C214.2,221.2,213.5,220.9,212.9,220.4z"/>
		<path class="st1" d="M217.5,211.5h2.2l1.6,6.8l1.8-5.7v-1.2h1.6l2,6.8l1.6-6.8h2.1l-2.5,9.4h-2l-2-6.2l-2,6.2H220L217.5,211.5z"/>
		<path class="st1" d="M231.4,216.3c0-3.3,1.6-4.9,4.9-4.9s4.9,1.6,4.9,4.9s-1.6,4.9-4.9,4.9C233.1,221.2,231.4,219.5,231.4,216.3z
			 M238.4,218.6c0.4-0.5,0.6-1.3,0.6-2.4s-0.2-1.9-0.6-2.3c-0.4-0.5-1.1-0.7-2.1-0.7s-1.7,0.2-2.1,0.7s-0.6,1.3-0.6,2.3
			c0,1.1,0.2,1.9,0.6,2.4s1.1,0.7,2.1,0.7C237.3,219.3,238,219.1,238.4,218.6z"/>
		<path class="st1" d="M243.3,211.5h2l0.1,1.1c0.5-0.3,1-0.6,1.6-0.8s1.2-0.4,1.8-0.5v1.6c-0.6,0.1-1.2,0.3-1.8,0.5
			c-0.7,0.2-1.2,0.4-1.5,0.7v6.8h-2.2V211.5z"/>
		<path class="st1" d="M250.6,207.6h2.2v7.7l3.9-3.8h2.5l-3.8,3.8l4,5.6h-2.3l-3.1-4.5l-1.2,1.2v3.3h-2.2V207.6z"/>
		<path class="st1" d="M269.5,213.2h-1.4v-1.7h1.4v-1.2c0-1,0.3-1.7,0.8-2.3c0.5-0.6,1.3-0.9,2.3-0.9c0.7,0,1.3,0.1,1.9,0.3v1.5
			c-0.4-0.1-0.8-0.2-1.2-0.2c-0.6,0-1.1,0.1-1.3,0.3c-0.2,0.2-0.4,0.6-0.4,1.2v1.1h2.5L274,213h-2.4v7.7h-2.1L269.5,213.2
			L269.5,213.2z"/>
		<path class="st1" d="M274.7,216.3c0-3.3,1.6-4.9,4.9-4.9s4.9,1.6,4.9,4.9s-1.6,4.9-4.9,4.9C276.4,221.2,274.7,219.5,274.7,216.3z
			 M281.8,218.6c0.4-0.5,0.6-1.3,0.6-2.4s-0.2-1.9-0.6-2.3c-0.4-0.5-1.1-0.7-2.1-0.7s-1.7,0.2-2.1,0.7s-0.6,1.3-0.6,2.3
			c0,1.1,0.2,1.9,0.6,2.4s1.1,0.7,2.1,0.7C280.6,219.3,281.3,219.1,281.8,218.6z"/>
		<path class="st1" d="M286.7,211.5h2l0.1,1.1c0.5-0.3,1-0.6,1.6-0.8s1.2-0.4,1.8-0.5v1.6c-0.6,0.1-1.2,0.3-1.8,0.5
			c-0.7,0.2-1.2,0.4-1.5,0.7v6.8h-2.2V211.5z"/>
		<path class="st1" d="M301.3,208.2h1.9l6.7,9.4v-9.4h2.1V221h-1.9l-6.6-9.4v9.4h-2.2V208.2z"/>
		<path class="st1" d="M315.5,219.9c-0.9-0.8-1.3-2-1.3-3.7c0-1.5,0.4-2.7,1.2-3.6c0.8-0.9,1.9-1.3,3.5-1.3c1.4,0,2.5,0.4,3.2,1.1
			s1.1,1.7,1.1,2.9v1.7h-6.9c0.1,0.9,0.4,1.5,1,1.9c0.5,0.4,1.4,0.5,2.6,0.5c0.5,0,1,0,1.5-0.1s0.9-0.2,1.3-0.4v1.6
			c-0.8,0.4-1.9,0.6-3.2,0.6C317.6,221.2,316.3,220.7,315.5,219.9z M321.2,215.7V215c0-0.7-0.2-1.2-0.6-1.5c-0.4-0.4-1-0.5-1.8-0.5
			c-1,0-1.7,0.2-2.1,0.6s-0.6,1.1-0.6,2.1H321.2z"/>
		<path class="st1" d="M324.8,211.5h2.2l1.6,6.8l1.8-5.7v-1.2h1.6l2,6.8l1.6-6.8h2.1l-2.5,9.4h-2l-2-6.2l-2,6.2h-2.1L324.8,211.5z"
			/>
		<path class="st1" d="M351.8,208.2h2.4L359,221h-2.2l-1.3-3.3h-5.1l-1.3,3.3H347L351.8,208.2z M355.2,216l-2.2-5.9l-2.2,5.9H355.2z
			"/>
		<path class="st1" d="M361.2,211.5h2l0.1,1c1-0.8,2.1-1.2,3.3-1.2c0.6,0,1.2,0.1,1.5,0.3s0.7,0.5,0.9,0.9c0.5-0.4,1-0.7,1.6-0.9
			c0.6-0.2,1.2-0.3,2-0.3c1.1,0,1.9,0.3,2.4,0.8c0.5,0.6,0.8,1.4,0.8,2.6v6.2h-2.1v-6c0-0.7-0.2-1.2-0.5-1.5s-0.8-0.4-1.5-0.4
			c-0.4,0-0.9,0.1-1.3,0.2c-0.4,0.2-0.8,0.4-1,0.7c0.1,0.3,0.1,0.6,0.1,1v6h-2v-6c0-0.7-0.1-1.2-0.4-1.5c-0.2-0.3-0.7-0.5-1.3-0.5
			c-0.8,0-1.6,0.4-2.4,1.1v6.8h-2.1v-9.3H361.2z"/>
		<path class="st1" d="M379.1,219.9c-0.9-0.8-1.3-2-1.3-3.7c0-1.5,0.4-2.7,1.2-3.6c0.8-0.9,1.9-1.3,3.5-1.3c1.4,0,2.5,0.4,3.2,1.1
			s1.1,1.7,1.1,2.9v1.7h-6.9c0.1,0.9,0.4,1.5,1,1.9c0.5,0.4,1.4,0.5,2.6,0.5c0.5,0,1,0,1.5-0.1s0.9-0.2,1.3-0.4v1.6
			c-0.8,0.4-1.9,0.6-3.2,0.6C381.3,221.2,380,220.7,379.1,219.9z M384.9,215.7V215c0-0.7-0.2-1.2-0.6-1.5s-1-0.5-1.8-0.5
			c-1,0-1.7,0.2-2.1,0.6s-0.6,1.1-0.6,2.1H384.9z"/>
		<path class="st1" d="M388.9,211.5h2l0.1,1.1c0.5-0.3,1-0.6,1.6-0.8s1.2-0.4,1.8-0.5v1.6c-0.6,0.1-1.2,0.3-1.8,0.5
			c-0.7,0.2-1.2,0.4-1.5,0.7v6.8h-2.2V211.5z"/>
		<path class="st1" d="M397.6,213.2h-1.4l0.2-1.6h3.4v9.4h-2.2V213.2z M397.4,207.8h2.4v1.8h-2.4V207.8z"/>
		<path class="st1" d="M403.1,219.9c-0.8-0.8-1.3-2.1-1.3-3.7s0.5-2.8,1.4-3.7c0.9-0.8,2.2-1.2,3.8-1.2c0.6,0,1.2,0,1.6,0.1
			s0.9,0.2,1.3,0.4v1.6c-0.7-0.3-1.5-0.5-2.5-0.5c-1.1,0-2,0.3-2.5,0.8c-0.6,0.5-0.8,1.3-0.8,2.5c0,1.1,0.3,2,0.8,2.5
			s1.4,0.8,2.5,0.8c0.9,0,1.8-0.2,2.6-0.5v1.6c-0.9,0.4-1.9,0.5-3.1,0.5C405.2,221.2,404,220.7,403.1,219.9z"/>
		<path class="st1" d="M411.9,220.4c-0.6-0.5-1-1.2-1-2.1s0.3-1.7,0.9-2.2s1.6-0.8,2.8-0.8h3v-0.4c0-0.5-0.1-0.8-0.2-1.1
			c-0.1-0.3-0.4-0.4-0.8-0.6s-0.9-0.2-1.6-0.2c-1.1,0-2.2,0.2-3.1,0.5v-1.6c0.5-0.2,1-0.3,1.6-0.4s1.2-0.2,1.9-0.2
			c1.4,0,2.5,0.3,3.2,0.9s1.1,1.5,1.1,2.7v6.1H418l-0.1-1c-0.4,0.4-0.9,0.7-1.4,0.9c-0.6,0.2-1.3,0.3-2.1,0.3
			C413.3,221.2,412.5,220.9,411.9,220.4z M416.5,219.3c0.5-0.2,0.9-0.5,1.2-0.9v-1.6h-3c-0.6,0-1.1,0.1-1.4,0.4
			c-0.3,0.2-0.4,0.6-0.4,1.1s0.2,0.8,0.5,1s0.8,0.3,1.4,0.3C415.5,219.6,416,219.5,416.5,219.3z"/>
		<path class="st1" d="M422.2,211.5h2l0.1,1c0.4-0.4,1-0.6,1.6-0.9c0.6-0.2,1.2-0.3,1.9-0.3c1.2,0,2.1,0.3,2.7,0.9s0.8,1.5,0.8,2.7
			v6.1h-2.1v-6c0-0.7-0.2-1.2-0.5-1.5s-0.9-0.4-1.7-0.4c-0.5,0-1,0.1-1.4,0.3c-0.5,0.2-0.9,0.5-1.2,0.8v6.9h-2.2L422.2,211.5
			L422.2,211.5z"/>
		<path class="st1" d="M435,221c-0.6-0.1-1.1-0.2-1.5-0.3v-1.8c0.4,0.2,0.9,0.3,1.5,0.4c0.5,0.1,1.1,0.1,1.6,0.1
			c0.8,0,1.3-0.1,1.6-0.2c0.3-0.1,0.5-0.4,0.5-0.8c0-0.3-0.1-0.6-0.4-0.8c-0.3-0.2-0.8-0.4-1.6-0.6l-0.6-0.2c-1-0.3-1.6-0.7-2.1-1.1
			c-0.4-0.4-0.7-1-0.7-1.7c0-0.9,0.3-1.6,1-2s1.6-0.7,3-0.7c0.5,0,1,0,1.5,0.1s0.9,0.2,1.3,0.3v1.8c-0.4-0.1-0.8-0.3-1.2-0.3
			c-0.4-0.1-0.9-0.1-1.3-0.1c-0.7,0-1.3,0.1-1.6,0.2c-0.3,0.1-0.5,0.4-0.5,0.7c0,0.3,0.1,0.5,0.4,0.7s0.7,0.3,1.5,0.6l0.4,0.1
			c0.8,0.2,1.4,0.5,1.8,0.7s0.7,0.5,0.9,0.9c0.2,0.4,0.3,0.8,0.3,1.4c0,1.8-1.3,2.8-3.9,2.8C436.2,221.2,435.6,221.1,435,221z"/>
	</g>
</g>
</svg>
